<svg width="17" height="30" viewBox="0 0 17 30" fill="none" xmlns="http://www.w3.org/2000/svg">
<path d="M6.12609 30C6.12609 28.9135 6.12609 27.8381 6.12609 26.7406C3.77431 26.2639 1.70934 25.2993 0 23.6142C0.99807 22.7051 1.98467 21.796 2.94832 20.9091C3.46457 21.2639 3.94639 21.6408 4.47411 21.929C6.03431 22.7827 7.7207 23.1042 9.4874 22.8492C10.0725 22.7716 10.6576 22.6275 11.2082 22.439C11.9883 22.173 12.6422 21.7184 12.7914 20.8537C12.952 19.8781 12.6996 19.0133 11.8621 18.3592C11.277 17.8936 10.5887 17.6164 9.87745 17.3836C8.40903 16.8958 6.92913 16.4634 5.46071 15.9645C4.19878 15.5432 3.0401 14.9446 2.06497 14.0466C1.04396 13.1153 0.447411 11.9623 0.252386 10.6208C-0.195025 7.60532 1.36518 5.04435 4.3938 3.86918C4.85269 3.6918 5.32304 3.53659 5.80487 3.42572C6.09167 3.3592 6.1605 3.23725 6.14903 2.97118C6.12609 2.09534 6.13756 1.20843 6.13756 0.332594C6.13756 0.232816 6.13756 0.121951 6.13756 0C7.52568 0 8.89086 0 10.279 0C10.279 0.454545 10.279 0.909091 10.279 1.35255C10.279 1.84035 10.2904 2.32816 10.279 2.81597C10.2675 3.0377 10.3593 3.12639 10.5773 3.14856C11.9195 3.29268 13.2044 3.63636 14.4433 4.16852C14.8908 4.36807 15.3152 4.60089 15.7856 4.8337C15.0284 5.97561 14.2942 7.07317 13.5715 8.14856C12.8831 7.89357 12.2407 7.59424 11.5524 7.40577C9.6939 6.8847 7.82395 6.87362 5.99989 7.54989C5.1739 7.86031 4.48558 8.34812 4.34792 9.25721C4.19878 10.255 4.49705 10.9867 5.3804 11.5188C6.24081 12.0399 7.20446 12.3282 8.16812 12.6386C9.49888 13.071 10.8411 13.459 12.1489 13.9468C13.5256 14.4679 14.7416 15.255 15.6594 16.4191C16.7607 17.8271 17.1393 19.4457 16.9557 21.1752C16.6919 23.6253 15.1661 25.1885 12.9061 26.1087C12.1604 26.408 11.3459 26.5521 10.5658 26.7738C10.474 26.796 10.3249 26.8958 10.3249 26.9512C10.3134 27.9712 10.3363 28.98 10.3363 30C8.9138 30 7.52568 30 6.12609 30Z" fill="#A4A8B2"/>
</svg>
