<svg width="44" height="45" viewBox="0 0 44 45" fill="none" xmlns="http://www.w3.org/2000/svg">
<rect x="0.413818" width="43.0603" height="45" rx="5" fill="#1E1F23"/>
<path d="M18.965 32.1983C19.2588 32.0686 19.4646 31.7688 19.4646 31.4199V29.1305C19.4646 29.047 19.4712 28.9601 19.4816 28.8719C19.4758 28.8736 19.4704 28.8749 19.4646 28.8761C19.4646 28.8761 18.2249 28.8761 17.977 28.8761C17.3571 28.8761 16.8199 28.6218 16.572 28.113C16.2827 27.5619 16.1588 26.6292 15.415 26.1204C15.291 26.0356 15.3736 25.9084 15.6216 25.9084C15.8695 25.9508 16.4067 26.29 16.7373 26.7564C17.1092 27.2227 17.4811 27.6043 18.1423 27.6043C19.17 27.6043 19.7208 27.5513 20.0522 27.369C20.4382 26.7801 20.9725 26.3324 21.5308 26.3324V26.3218C19.1886 26.2446 17.6923 25.4459 16.9956 24.2126C15.4811 24.2304 14.1625 24.3843 13.41 24.5123C13.386 24.3737 13.3653 24.2342 13.3476 24.0939C14.0901 23.9684 15.3488 23.8196 16.796 23.7912C16.7497 23.6742 16.7096 23.5542 16.6757 23.4312C15.2249 23.3558 13.9728 23.4147 13.2926 23.4724C13.2843 23.3316 13.2732 23.1913 13.2715 23.0488C13.9529 22.9916 15.1712 22.9344 16.5848 23.0018C16.5522 22.7898 16.5311 22.5731 16.5311 22.3476C16.5311 21.6269 16.779 20.8637 17.2336 20.2278C17.027 19.5071 16.7377 17.9808 17.3162 17.4297C18.432 17.4297 19.2171 17.9808 19.589 18.32C20.2911 18.0228 21.0762 17.8532 21.944 17.8532C22.8118 17.8532 23.5969 18.0228 24.2581 18.3196C24.63 17.9804 25.4151 17.4293 26.5309 17.4293C27.1507 18.0228 26.8201 19.5491 26.6135 20.2274C27.0681 20.8633 27.316 21.5841 27.2747 22.3472C27.2747 22.5524 27.2561 22.7504 27.2292 22.9445C28.6751 22.8716 29.9264 22.9301 30.6194 22.9878C30.6186 23.1307 30.6057 23.2701 30.5983 23.4113C29.9078 23.3528 28.6251 23.2926 27.1441 23.3736C27.1073 23.516 27.0627 23.6547 27.0098 23.7891C28.4751 23.8086 29.764 23.954 30.5421 24.0812C30.5243 24.2219 30.5037 24.3614 30.4797 24.4996C29.6896 24.3699 28.3429 24.2181 26.8106 24.2105C26.1226 25.4306 24.6536 26.2264 22.3572 26.3193V26.3324C23.4316 26.3324 24.4234 27.9858 24.4234 29.1305V31.4199C24.4234 31.7688 24.6292 32.0686 24.923 32.1983C28.7086 30.9128 31.4483 27.2498 31.4483 22.9407C31.4483 17.5641 27.185 13.1897 21.944 13.1897C16.703 13.1897 12.4397 17.5641 12.4397 22.9407C12.4397 27.2498 15.1794 30.9128 18.965 32.1983Z" fill="white"/>
</svg>
