<svg width="68" height="74" viewBox="0 0 68 74" fill="none" xmlns="http://www.w3.org/2000/svg">
<path d="M39.8952 0C41.2626 0.229381 42.668 0.363186 44.0164 0.707258C56.3421 3.84213 64.2996 11.5837 67.1294 24.0659C69.5604 34.8277 66.5217 44.2705 58.887 52.2033C58.2982 52.8149 58.1463 53.3884 58.3172 54.1912C59.3048 59.0273 60.2544 63.8443 61.204 68.6804C61.6978 71.2419 60.0455 73.2489 57.4816 73.2681C48.0807 73.2681 38.6797 73.2681 29.2598 73.2681C26.9808 73.2681 25.5184 71.7962 25.4045 69.4833C25.3665 68.6804 25.1956 67.8967 25.0816 66.9983C23.6193 67.6291 22.3088 68.2026 20.9984 68.7951C18.9473 69.7318 16.8772 70.6493 14.5982 70.764C13.7245 70.8022 12.8319 70.8213 11.9963 70.6111C9.94518 70.095 8.55878 68.2217 8.52079 66.0808C8.5018 64.8383 8.5018 63.5958 8.52079 62.3534C8.52079 61.7608 8.29289 61.3785 7.74213 61.13C6.39371 60.4801 5.88094 59.2758 6.4317 57.8804C6.64061 57.3643 6.54565 57.0967 6.14682 56.7526C5.08328 55.816 4.95034 54.9749 5.44412 53.6178C5.71001 52.8914 5.88094 52.1268 6.10884 51.3048C5.12127 51.171 4.24764 51.0755 3.39301 50.9608C0.335337 50.5211 -0.994087 47.2524 0.829123 44.7293C2.19653 42.8369 3.54495 40.9445 4.85538 39.0139C6.52666 36.5098 7.30532 33.7381 7.28633 30.7179C7.24834 26.4744 7.97003 22.3455 9.67929 18.4652C13.9714 8.79293 21.3023 2.86726 31.5578 0.611682C32.7353 0.363186 33.9318 0.210266 35.1093 0.0191151C36.6666 0 38.2809 0 39.8952 0ZM27.2657 66.0999C27.3986 66.6734 27.5316 67.1512 27.6075 67.6482C27.7025 68.1643 27.7595 68.6804 27.7974 69.2157C27.8734 70.4773 28.2343 70.8404 29.5257 70.8404C38.7367 70.8404 47.9667 70.8404 57.1777 70.8404C58.6211 70.8404 59.0389 70.3052 58.754 68.8716C57.7855 64.0355 56.7979 59.2185 55.8863 54.3633C55.7533 53.5986 55.8293 52.7194 56.1142 51.993C56.3801 51.3048 56.9878 50.7123 57.5196 50.1388C64.5845 42.4737 67.0724 33.5278 64.5465 23.3968C61.6978 11.9278 52.0499 3.74655 40.332 2.58053C33.2481 1.87328 26.6959 3.59363 20.9794 7.87541C13.4966 13.4761 9.75526 21.103 9.67929 30.4885C9.6603 34.1586 8.76769 37.5038 6.73557 40.5431C5.46312 42.4355 4.1147 44.2705 2.78528 46.1247C1.98762 47.2142 2.42443 48.3611 3.75386 48.514C4.85538 48.6478 5.9759 48.7243 7.07742 48.8199C8.02701 48.8963 8.52079 49.336 8.44483 50.2726C8.33088 51.5151 8.14096 52.7767 7.85608 53.981C7.60919 54.994 7.53322 54.9558 8.40684 55.491C8.53979 55.5675 8.69172 55.644 8.84365 55.7204C9.64131 56.1792 9.79324 56.8864 9.28046 57.651C9.03357 58.0142 8.82466 58.4156 8.59676 58.7788C10.6099 60.0404 10.9138 60.5948 10.9138 62.965C10.9138 63.9208 10.9138 64.8765 10.9138 65.8323C10.9327 67.3615 11.9583 68.3937 13.4776 68.3746C14.997 68.3555 16.4783 68.0496 17.9027 67.4571C22.2518 65.6603 26.601 63.8634 30.9691 62.1049C32.3555 61.5314 33.362 60.6139 33.9698 59.2376C34.4446 58.1289 34.9384 57.0202 35.4321 55.9116C35.812 55.0705 36.4387 54.7647 37.1224 55.0705C37.8061 55.3764 38.015 56.0454 37.6542 56.8864C37.2174 57.9187 36.7426 58.9318 36.3058 59.964C35.3752 62.2387 33.7609 63.7488 31.4439 64.5516C30.0385 65.0103 28.6711 65.5647 27.2657 66.0999Z" fill="white"/>
<path d="M49.695 42.7413C49.695 44.1558 49.7139 45.5321 49.695 46.9084C49.676 48.7243 48.8783 50.1006 47.245 50.8652C45.6687 51.5916 44.1304 51.4004 42.8009 50.2726C42.3261 49.8712 41.9463 49.3169 41.6424 48.7625C41.0537 47.7112 40.5409 46.6025 40.0091 45.513C39.5154 44.5381 38.7177 44.0029 37.6352 43.9647C35.1852 43.85 33.6089 42.6266 32.8682 40.2946C32.8493 40.2372 32.7923 40.1799 32.7353 40.0843C30.8931 40.4857 29.1269 40.3137 27.4176 39.4726C25.8413 38.6889 24.6448 37.5038 23.8471 35.9172C23.6762 35.554 23.4673 35.4011 23.0495 35.3629C18.7763 35.0379 15.6427 31.5399 15.6997 27.2199C15.6997 26.7802 15.5667 26.2832 15.3578 25.9009C13.8385 23.1483 14.3892 19.7076 16.7062 17.605C16.9531 17.3756 17.162 17.0698 17.276 16.7448C18.2826 13.8967 20.9794 12.0807 23.9991 12.2145C24.265 12.2336 24.5878 12.0807 24.7777 11.9087C26.1072 10.5515 27.7025 9.86337 29.5827 9.7678C29.8675 9.74868 30.1904 9.63399 30.3803 9.44284C33.533 6.61381 38.034 6.65204 41.1676 9.5193C41.3956 9.72957 41.8324 9.84426 42.1552 9.82514C44.4722 9.61488 46.5043 10.2839 48.2706 11.8131C48.5175 12.0234 48.8783 12.1954 49.1822 12.2145C54.12 12.463 57.6715 15.8846 58.1463 20.8545C58.1843 21.3324 58.3362 21.6 58.735 21.8676C62.7993 24.4864 62.8183 30.4694 58.773 33.1073C58.3552 33.394 58.1653 33.6616 58.1463 34.1777C57.9374 38.0199 55.0886 42.1105 49.695 42.7413ZM55.7533 21.6956C55.9812 17.777 52.5627 14.3745 48.6694 14.6804C48.0807 14.7186 47.6059 14.6421 47.207 14.1834C45.6877 12.463 43.7885 11.8705 41.5665 12.4248C40.9967 12.5586 40.4839 12.463 40.1041 11.966C38.015 9.15612 33.7798 9.06054 31.5008 11.794C31.2539 12.0998 30.6652 12.291 30.2474 12.2528C28.5381 12.119 27.1707 12.6924 26.1831 14.0878C25.7653 14.6804 25.2905 14.9098 24.5498 14.7759C22.0429 14.3363 20.1248 15.617 19.4221 18.0446C19.3271 18.4078 19.0802 18.7901 18.7953 19.0386C16.6493 20.7781 16.3264 23.0719 17.8837 25.3466C18.1116 25.6715 18.2636 26.1685 18.1876 26.5317C17.5609 29.8577 20.3337 33.3367 24.132 32.9544C25.0056 32.8588 25.3475 33.1455 25.6514 34.0057C27.0947 38.211 32.1276 39.205 35.0523 35.879C35.698 35.1526 36.0968 35.0761 36.9895 35.5349C40.465 37.3317 43.7315 36.9877 46.7702 34.5218C47.226 34.1395 47.7008 34.0248 48.2896 34.1204C50.0178 34.4454 51.4422 33.8719 52.4488 32.4574C52.9805 31.731 53.5503 31.5399 54.3859 31.6928C56.494 32.0942 58.5261 30.8326 59.1719 28.8064C59.8176 26.742 58.849 24.5246 56.8739 23.6262C55.7723 23.0719 55.6774 22.8999 55.7533 21.6956ZM47.264 42.5884C47.1691 42.5501 47.1121 42.5119 47.0361 42.4928C45.023 41.9958 43.3517 40.9636 42.0223 39.3388C41.8703 39.1668 41.5475 39.1285 41.2816 39.0712C40.0471 38.8609 38.7747 38.8036 37.6162 38.4022C36.7426 38.0963 36.0968 38.0581 35.5271 38.7845C35.3562 39.0139 35.1852 39.3579 35.2232 39.6064C35.3752 40.6577 36.3627 41.4415 37.5022 41.4797C39.7243 41.5562 41.3006 42.6075 42.2692 44.6146C42.8009 45.7041 43.3327 46.7937 43.9025 47.8641C44.3013 48.6287 45.061 48.9537 45.8776 48.7625C46.6183 48.5905 47.207 47.9406 47.226 47.1186C47.283 45.6277 47.264 44.0985 47.264 42.5884ZM55.7533 34.0057C55.0316 34.1969 54.3479 34.1586 53.9871 34.5027C52.4678 35.9746 50.7015 36.7009 48.6124 36.6245C48.4035 36.6245 48.1756 36.6054 48.0047 36.7009C46.9032 37.3317 45.8206 37.9816 44.7001 38.6507C46.7512 40.3137 49.0492 40.7916 51.5372 39.7785C53.9871 38.8036 55.3355 36.8921 55.7533 34.0057Z" fill="white"/>
<path d="M39.9902 26.8758C39.9902 27.6595 39.9902 28.3668 39.9902 29.0931C39.9712 30.7561 38.9836 31.7501 37.3123 31.7692C36.6096 31.7692 35.8879 31.7884 35.1852 31.7692C33.7609 31.731 32.7733 30.7944 32.7163 29.3607C32.6783 28.577 32.7163 27.7933 32.7163 26.8949C31.9946 26.8949 31.3109 26.8949 30.6272 26.8949C28.823 26.8949 27.8544 25.92 27.8544 24.1232C27.8544 23.5498 27.8544 22.9763 27.8544 22.4029C27.8544 20.4914 28.785 19.5738 30.7032 19.5547C31.3299 19.5547 31.9756 19.5547 32.7163 19.5547C32.7163 18.8092 32.7163 18.1211 32.7163 17.4329C32.7353 15.617 33.6659 14.6613 35.4891 14.6613C36.0589 14.6613 36.6286 14.6613 37.1984 14.6613C39.0596 14.6804 40.0092 15.617 40.0092 17.4712C40.0092 18.1402 40.0092 18.7901 40.0092 19.5547C40.7688 19.5547 41.4715 19.5547 42.1742 19.5547C43.9025 19.5738 44.8331 20.5487 44.8521 22.2882C44.8521 22.9572 44.871 23.6262 44.8521 24.2953C44.8331 25.8627 43.8265 26.8758 42.2502 26.8949C41.5475 26.8758 40.8258 26.8758 39.9902 26.8758ZM30.3044 24.4291C31.121 24.4291 31.8427 24.4482 32.5834 24.4291C34.9573 24.3526 35.2042 24.5437 35.1473 26.9714C35.1283 27.7169 35.1473 28.4815 35.1473 29.2652C36.0019 29.2652 36.7616 29.2652 37.5782 29.2652C37.5782 28.3094 37.5782 27.411 37.5782 26.5126C37.5782 24.6393 37.7681 24.4482 39.5913 24.4482C39.8952 24.4482 40.1991 24.4482 40.5219 24.4482C41.1487 24.4482 41.7754 24.4482 42.3831 24.4482C42.3831 23.5689 42.3831 22.8234 42.3831 22.0014C41.5475 22.0014 40.7688 22.0014 39.9902 22.0014C37.6542 22.0014 37.5782 21.9059 37.5782 19.6121C37.5782 18.8092 37.5782 18.0064 37.5782 17.1653C36.7426 17.1653 35.9829 17.1653 35.1473 17.1653C35.1473 17.949 35.1473 18.6945 35.1473 19.4209C35.1473 21.9441 35.0903 22.0014 32.6214 22.0014C31.8617 22.0014 31.121 22.0014 30.3233 22.0014C30.3044 22.8234 30.3044 23.5689 30.3044 24.4291Z" fill="white"/>
</svg>
