<svg width="44" height="45" viewBox="0 0 44 45" fill="none" xmlns="http://www.w3.org/2000/svg">
<rect x="0.206909" width="43.0603" height="45" rx="5" fill="#1E1F23"/>
<path d="M17.8488 13.1897C14.7513 13.1897 12.2327 15.7083 12.2327 18.8059V26.5821C12.2327 29.6796 14.7513 32.1983 17.8488 32.1983H25.6251C28.7226 32.1983 31.2413 29.6796 31.2413 26.5821V18.8059C31.2413 15.7083 28.7226 13.1897 25.6251 13.1897H17.8488ZM26.9211 16.6458C27.3964 16.6458 27.7852 17.0346 27.7852 17.5098C27.7852 17.985 27.3964 18.3738 26.9211 18.3738C26.4459 18.3738 26.0571 17.985 26.0571 17.5098C26.0571 17.0346 26.4459 16.6458 26.9211 16.6458ZM21.737 17.9418C24.3593 17.9418 26.4891 20.0717 26.4891 22.694C26.4891 25.3163 24.3593 27.4461 21.737 27.4461C19.1147 27.4461 16.9848 25.3163 16.9848 22.694C16.9848 20.0717 19.1147 17.9418 21.737 17.9418ZM21.737 18.8059C19.5942 18.8059 17.8488 20.5512 17.8488 22.694C17.8488 24.8368 19.5942 26.5821 21.737 26.5821C23.8798 26.5821 25.6251 24.8368 25.6251 22.694C25.6251 20.5512 23.8798 18.8059 21.737 18.8059Z" fill="white"/>
</svg>
