<svg width="24" height="24" viewBox="0 0 24 24" fill="none" xmlns="http://www.w3.org/2000/svg">
<path d="M18.8484 2.13245C18.8067 1.9993 18.7816 1.89111 18.7482 1.78292C18.5312 1.05057 18.8985 0.318211 19.6082 0.0768662C20.3178 -0.164478 21.0776 0.176733 21.328 0.900766C21.7956 2.24064 22.2381 3.58884 22.6805 4.94536C22.739 5.12013 22.7557 5.31986 22.7306 5.49463C22.6471 6.1937 22.1045 6.66806 21.3865 6.67638C20.0506 6.69303 18.7232 6.68471 17.3874 6.67638C16.7027 6.66806 16.2018 6.26027 16.0515 5.62778C15.9179 5.05355 16.2018 4.47932 16.7946 4.16307C16.828 4.14643 16.8614 4.12979 16.9365 4.08817C16.2936 3.66374 15.6174 3.36414 14.9161 3.13944C9.5227 1.44171 3.96235 4.70402 2.8436 10.23C1.81668 15.3065 5.33991 20.3498 10.4745 21.1654C15.6758 21.9893 20.4263 18.5522 21.2445 13.3591C21.3197 12.9014 21.3113 12.427 21.3447 11.961C21.3948 11.3535 21.7371 10.9041 22.2798 10.7293C22.7891 10.5712 23.3819 10.7043 23.6824 11.1454C23.8577 11.4034 24.008 11.7529 23.9997 12.0609C23.8577 16.7712 21.7622 20.3664 17.5877 22.5801C10.4411 26.3834 1.80834 22.189 0.222048 14.2496C-1.04698 7.90807 3.26104 1.50829 9.63124 0.293244C12.8623 -0.3226 15.8595 0.259955 18.623 2.03259C18.6731 2.06588 18.7315 2.09916 18.7816 2.13245C18.79 2.14078 18.8067 2.13245 18.8484 2.13245Z" fill="white"/>
</svg>
