<svg width="44" height="45" viewBox="0 0 44 45" fill="none" xmlns="http://www.w3.org/2000/svg">
<rect width="43.0603" height="45" rx="5" fill="#1E1F23"/>
<path d="M32.1983 16.2817C31.4547 16.6098 30.6576 16.8301 29.8196 16.9301C30.6749 16.4207 31.332 15.6144 31.6402 14.655C30.8415 15.1253 29.9532 15.4675 29.0115 15.6519C28.2569 14.8519 27.1815 14.3534 25.9914 14.3534C23.7055 14.3534 21.8519 16.1942 21.8519 18.4662C21.8519 18.788 21.8896 19.1021 21.9604 19.4037C18.5205 19.2318 15.4721 17.5942 13.4298 15.105C13.0729 15.7144 12.8701 16.4207 12.8701 17.1739C12.8701 18.6005 13.5996 19.86 14.7111 20.5991C14.032 20.5772 13.3937 20.3913 12.8355 20.0834C12.8355 20.1006 12.8355 20.1178 12.8355 20.135C12.8355 22.1289 14.2631 23.7899 16.1544 24.1696C15.8085 24.2634 15.4422 24.3134 15.0649 24.3134C14.7976 24.3134 14.5382 24.2884 14.2851 24.2384C14.8133 25.8713 16.3415 27.0635 18.151 27.0963C16.7361 28.1995 14.9517 28.8558 13.0116 28.8558C12.6768 28.8558 12.3482 28.837 12.0259 28.798C13.8559 29.9668 16.0317 30.6465 18.3696 30.6465C25.982 30.6465 30.145 24.379 30.145 18.9443C30.145 18.7662 30.1403 18.5865 30.134 18.4115C30.9421 17.8317 31.6433 17.1067 32.1983 16.2817Z" fill="white"/>
</svg>
