<svg width="359" height="81" viewBox="0 0 359 81" fill="none" xmlns="http://www.w3.org/2000/svg">
<path d="M125.425 51.6119C125.86 51.6119 126.296 51.4657 126.731 51.9043C126.586 52.0505 126.586 52.343 126.441 52.343C125.425 52.9278 124.554 53.6588 123.683 54.3899C122.812 54.9747 121.651 55.4134 120.054 56.1444C119.909 56.4368 119.183 57.1679 118.892 57.4603C117.441 58.1913 116.425 58.63 115.408 59.2148C115.263 59.2148 115.118 59.2148 115.118 59.2148C114.973 59.2148 114.683 59.2148 114.537 59.0686C114.392 58.63 114.247 58.3375 114.102 57.8989C113.376 58.4838 112.215 58.4838 111.779 59.6534C112.215 59.7996 112.505 59.9458 112.941 60.0921C112.795 60.2383 112.795 60.5307 112.65 60.5307C112.07 60.9693 111.344 61.2617 110.908 61.7004C110.473 62.139 109.892 62.4314 109.311 62.7238C108.586 63.0162 107.86 63.3087 107.569 63.8935C106.989 64.6245 106.118 64.3321 105.682 65.0632C105.392 65.5018 104.811 65.2094 104.521 65.3556C104.521 65.0632 104.666 64.7708 104.521 64.4783C104.376 64.3321 104.085 64.1859 103.94 64.1859C103.795 63.7473 103.94 63.1625 103.359 63.7473C103.505 63.8935 103.65 64.0397 103.94 64.1859C103.94 64.4783 103.94 65.0632 103.94 65.5018C103.359 65.3556 103.214 65.9404 102.924 66.2328C102.634 66.5253 102.488 66.9639 101.908 66.9639C101.763 66.5253 102.198 65.9404 101.472 65.648C101.182 66.5253 101.182 66.5253 101.908 66.9639C102.053 67.4025 101.763 67.5487 101.327 67.6949C101.182 67.6949 100.892 67.8412 100.746 67.8412C100.311 68.2798 100.021 68.5722 99.5851 69.0108C99.0044 69.0108 98.2786 69.0108 97.5528 69.0108C97.2624 69.4495 96.8269 69.8881 96.3914 70.1805C95.8108 70.1805 95.2301 70.1805 94.9397 70.3267C93.1977 71.3502 91.1654 72.0812 89.4234 73.2509C88.8427 73.6895 88.1169 73.1047 87.5362 73.6895C87.1007 74.2744 86.0845 74.1282 85.649 74.8592C85.3587 75.5903 84.4877 75.2978 84.0522 75.7365C83.4715 76.1751 82.7456 76.3213 82.165 76.9061C81.7295 77.6372 80.7133 77.3448 80.2778 78.0758C78.3906 77.9296 77.2293 79.3917 75.1969 80.1227C74.9066 80.1227 74.0356 80.1227 73.1646 80.1227C72.8742 80.4152 72.7291 80.5614 72.4387 80.8538C70.8419 80.8538 69.3902 80.8538 67.7934 80.8538C67.503 80.5614 67.3579 80.4152 67.0675 80.1227C66.632 80.1227 66.1965 80.1227 65.761 80.1227C65.3255 79.8303 65.3255 79.3917 65.6158 78.9531C68.374 74.1282 68.6644 73.6895 70.8419 71.6426C70.8419 71.4964 70.8419 71.204 70.8419 71.0578C70.8419 70.9115 70.9871 70.9116 71.1322 70.7653C71.4226 70.7653 71.8581 70.7653 72.2936 70.7653C72.4387 70.7653 72.4387 70.6191 72.5839 70.6191C72.7291 70.1805 72.8742 69.8881 73.0194 69.4495C73.3097 69.4495 73.4549 69.4495 73.7452 69.4495C74.7614 68.5722 75.6324 67.6949 76.6486 66.6715C77.9551 66.5253 78.2454 64.917 79.4068 64.6245C79.552 64.6245 79.6971 64.6245 79.6971 64.6245C80.1326 64.1859 80.7133 63.6011 81.1488 63.1625C81.7295 62.5776 82.4553 61.8466 83.036 61.2617C84.0522 61.4079 84.4877 60.3845 85.0683 59.7996C85.649 59.2148 86.2297 58.4838 87.1007 58.3375C87.391 58.3375 87.6814 57.7527 88.1169 57.4603C88.9879 56.7292 89.5685 55.5596 90.875 55.1209C92.0364 54.8285 92.3267 53.074 93.6332 53.074C94.9397 51.7581 96.2462 50.296 97.5528 48.9801C97.8431 48.9801 98.1334 48.9801 98.2786 48.9801C99.1496 47.8105 100.456 47.2256 101.908 46.787C102.634 46.056 103.505 45.1787 104.376 44.1552C104.521 44.1552 104.811 44.1552 104.956 44.1552C105.973 43.278 106.698 41.9621 107.86 41.5235C109.021 41.0848 109.602 39.9152 110.618 39.1841C110.763 39.1841 110.763 38.8917 110.908 38.8917C111.924 38.8917 112.215 37.722 112.941 37.5758C113.666 37.2834 113.957 36.991 114.537 36.5523C115.554 35.6751 116.134 34.5054 117.441 34.0668C118.602 33.7744 118.892 32.0199 120.199 32.0199C121.36 30.8502 122.376 29.8267 123.393 28.657C124.989 28.657 125.28 26.7563 126.586 26.6101C127.748 26.4639 128.038 24.5632 129.345 24.5632C130.361 23.6859 131.087 22.5162 132.248 21.9314C133.409 21.2004 134.135 20.1769 135.151 19.2996C136.022 18.4224 136.893 17.5451 137.764 16.6679C138.635 15.6444 139.651 14.7671 140.522 13.7437C140.668 13.7437 140.958 13.7437 141.393 13.7437C141.539 13.4513 141.539 12.8664 141.684 12.7202C142.845 11.843 142.99 10.2347 144.297 9.3574C143.716 9.06498 143.135 8.77256 142.41 8.33393C141.974 8.33393 141.393 8.33393 140.668 8.33393C140.377 8.04152 140.232 7.89531 139.942 7.60289C138.345 7.60289 136.893 7.60289 135.296 7.60289C135.151 7.7491 135.006 7.89531 134.716 8.18773C133.409 8.18773 131.958 8.18773 130.651 8.18773C130.361 8.48014 130.216 8.62635 129.925 8.91877C129.345 8.91877 128.764 8.91877 128.038 8.91877C127.748 9.21119 127.457 9.3574 127.167 9.64982C126.441 9.64982 125.57 9.64982 124.699 9.64982C124.409 9.94224 124.118 10.0884 123.828 10.3809C123.247 10.3809 122.667 10.3809 121.941 10.3809C121.651 10.6733 121.505 10.8195 121.215 11.1119C120.634 11.1119 119.909 11.1119 119.328 11.1119C119.038 11.4043 118.892 11.5505 118.602 11.843C118.167 11.843 117.731 11.843 117.296 11.843C117.586 11.6968 117.296 11.9892 117.15 12.2816C116.715 12.2816 116.279 12.2816 115.844 12.2816C115.554 12.574 115.263 12.7202 115.118 13.0126C114.537 13.0126 113.812 12.8664 113.376 13.0126C112.65 13.4513 111.924 13.7437 111.053 13.7437C110.182 14.7671 108.731 14.6209 107.86 15.6444C107.424 15.6444 106.989 15.6444 106.553 15.6444C106.408 15.7906 106.263 15.9368 105.972 16.2292C105.537 16.2292 105.101 16.2292 104.521 16.3755C104.085 17.1065 103.505 17.1065 102.634 16.9603C102.343 17.2527 101.908 17.9838 101.327 18.2762C100.892 18.5686 100.311 18.5686 100.021 19.0072C99.2948 19.0072 98.7141 19.0072 97.9883 19.0072C96.9721 19.8845 95.5204 20.1769 94.5042 21.0542C93.3429 20.7617 92.6171 22.0776 91.3106 21.639C91.0202 22.0776 90.7299 22.6625 90.5847 23.1011C89.7137 23.1011 89.2782 23.1011 88.6975 23.1011C88.1169 24.1245 87.1007 24.417 86.2297 25.0018C85.9393 25.2942 85.3587 25.148 84.778 25.2942C83.7618 26.6101 82.0198 27.0487 80.423 27.926C79.552 28.3646 78.5358 28.8032 77.8099 29.5343C77.3744 29.9729 76.7938 30.1191 75.9228 30.5578C75.4873 30.5578 74.7614 30.5578 74.0356 30.704C73.8904 31.1426 73.8904 31.435 73.7452 31.8736C73.4549 31.8736 73.1646 31.8736 72.8742 32.0199C72.7291 32.1661 72.5839 32.3123 72.4387 32.4585C72.1484 32.6047 71.8581 32.6047 71.4226 32.8971C71.1322 33.1895 70.6967 33.6282 70.4064 33.9206C69.8257 34.3592 68.8095 33.6282 68.374 34.6516C67.2127 35.0903 66.0514 35.5289 65.1803 36.5523C64.7448 36.991 64.1642 37.1372 63.5835 37.4296C62.5673 37.8682 61.5512 38.4531 60.535 38.8917C59.5188 39.3303 58.3575 39.769 57.6316 40.9386C56.6154 41.0848 55.7444 41.6697 54.8734 42.4007C54.1476 43.1318 52.9862 43.278 52.2604 44.3014C51.3894 43.8628 51.0991 45.4711 50.2281 45.0325C49.6474 45.6173 48.9215 46.3484 48.3409 46.9332C47.1795 46.6408 46.4537 47.518 45.4375 47.9567C44.5665 48.3953 43.4052 48.6877 42.6793 49.4188C41.9535 50.296 40.7922 50.4422 40.0663 51.3195C39.3405 52.0505 38.1791 52.1968 37.5985 53.2202C36.8726 53.2202 36.1468 53.2202 35.5661 53.2202C34.4048 54.3899 33.3886 55.4134 32.2273 56.583C31.7917 56.583 31.3562 56.583 30.7756 56.583C30.6304 57.0217 30.4852 57.3141 30.3401 57.7527C29.4691 58.1913 28.5981 58.4838 27.8722 58.9224C27.8722 59.2148 27.8722 59.361 27.8722 59.6534C27.0012 60.0921 25.8399 60.3845 25.2592 61.1155C24.5334 61.9928 23.372 61.8466 22.9365 62.7238C22.7913 62.87 22.6462 63.1625 22.501 63.1625C21.3397 63.1625 21.0493 64.4783 20.1783 64.6245C19.3073 64.7708 19.1622 65.7942 17.8556 66.0866C18.146 66.0866 17.8556 66.0866 17.7105 66.0866C17.1298 66.6715 16.5491 67.4025 15.8233 67.9874C15.0975 68.5722 14.8071 69.4495 13.7909 69.5957C13.0651 69.5957 12.9199 70.9116 12.0489 70.9116C11.1779 70.9116 11.0328 72.2274 10.0166 72.3736C9.29074 72.5199 8.5649 73.1047 7.69389 73.6895C7.40356 73.6895 6.96805 73.6895 6.53255 73.6895C6.24222 73.9819 6.09705 74.1282 5.80671 74.4206C5.37121 74.4206 4.93571 74.4206 4.5002 74.4206C4.20987 74.713 4.0647 74.8592 3.77436 75.1516C3.04852 75.0054 2.17752 75.444 1.59685 74.8592C1.74201 74.4206 2.32268 74.2744 2.17752 73.8357C2.61302 73.6895 3.04852 73.8357 2.61302 73.2509C2.46785 73.3971 2.32268 73.6895 2.17752 73.8357C1.88718 73.8357 1.59685 73.8357 1.30651 73.8357C0.725839 73.1047 0.290336 72.8123 0 72.5199C0.290336 72.2274 0.580671 71.935 0.871007 71.4964C1.16134 71.6426 1.30651 71.7888 1.45168 72.0812C2.32268 71.6426 3.04852 71.204 3.91953 70.9116C4.35503 70.7653 4.64537 70.3267 4.93571 70.1805C5.51638 69.8881 4.93571 68.8646 5.95188 68.8646C6.38738 68.8646 6.82289 68.2798 7.11322 67.8412C7.54873 67.4025 8.27456 67.5487 8.71007 66.9639C9.0004 66.3791 9.58108 65.9404 9.87141 65.5018C10.5973 65.5018 11.0328 65.5018 11.4683 65.5018C11.6134 65.2094 11.6134 64.917 11.7586 64.4783C12.3393 63.8935 12.7748 63.1625 13.5006 62.7238C14.0813 63.0162 14.6619 63.3087 15.0975 63.6011C15.8233 63.1625 15.533 62.5776 15.6781 61.8466C15.8233 61.7004 15.9685 61.4079 16.2588 61.2617C17.1298 60.8231 18.0008 60.3845 18.5815 59.5072C19.5977 59.5072 20.0332 58.63 20.6138 58.0451C20.9042 57.8989 21.1945 57.8989 21.4848 57.7527C22.2107 57.1679 22.6462 56.2906 23.8075 55.852C24.8237 55.5596 25.114 54.0975 26.2754 53.8051C27.2915 53.6588 27.4367 52.1967 28.7432 52.343C29.1787 51.9043 29.7594 51.4657 30.1949 50.8809C30.6304 50.296 31.3562 50.4422 31.7917 50.0036C32.2273 49.565 32.5176 48.8339 33.3886 48.9801C33.6789 48.2491 34.5499 48.3953 34.9854 47.9567C35.4209 47.518 35.8564 47.0794 36.5823 46.787C37.5985 46.3484 38.7598 45.9097 39.4856 45.1787C40.3567 44.4477 41.3728 44.1552 42.0987 43.278C42.5342 42.6931 43.26 42.1083 43.8407 42.1083C44.5665 42.1083 44.8569 41.231 45.5827 41.3773C46.3085 41.3773 46.4537 40.6462 46.8892 40.3538C47.1795 40.2076 47.4699 40.0614 47.7602 39.9152C48.3409 39.6227 48.7764 39.0379 49.3571 39.1841C49.9377 38.3069 50.8087 38.0144 51.6797 37.4296C52.2604 37.1372 52.5507 36.5523 53.2766 36.4061C54.0024 36.2599 54.1476 35.2365 55.0186 35.0903C55.5993 34.944 55.8896 34.0668 56.4703 33.9206C57.051 33.7744 57.4864 33.6282 57.7768 33.1895C58.2123 33.1895 58.793 33.1895 59.2285 33.1895C59.8091 32.6047 60.3898 32.0199 61.2608 31.7274C62.1318 31.435 62.8577 30.8502 63.7287 30.5578C64.4545 30.2653 64.7448 29.0957 65.761 29.2419C66.3417 28.5108 67.3579 28.3646 68.2289 27.926C69.0999 27.4874 69.8257 27.0487 70.6967 26.6101C71.5677 26.1715 72.4387 26.0253 73.1646 25.2942C74.0356 25.4404 74.1807 24.7094 74.7614 24.2708C75.1969 23.9783 75.6324 23.6859 76.0679 23.5397C76.9389 23.2473 77.8099 22.8087 78.5358 22.2238C79.2616 21.7852 79.8423 21.2004 80.5681 20.7617C83.4715 19.2996 86.3748 17.6913 89.4234 16.2292C90.004 15.9368 90.5847 15.4982 91.4557 15.4982C92.0364 15.4982 92.4719 14.9134 93.0526 14.7671C93.7784 14.4747 94.2139 13.7437 94.9397 13.7437C95.8107 13.7437 96.5366 13.3051 97.2624 13.0126C97.9883 12.574 98.7141 12.4278 99.5851 12.2816C100.311 12.1354 101.037 11.4043 101.763 11.1119C102.488 10.6733 103.359 10.3809 103.94 9.94224C104.666 9.50361 105.827 10.2347 106.263 9.06498C107.279 9.50361 108.005 8.48014 109.021 8.33393C109.892 8.33393 110.763 7.89531 111.489 7.16426C112.65 7.45668 113.521 5.99458 114.828 6.43321C115.118 6.287 115.263 5.99458 115.554 5.70217C115.989 5.70217 116.425 5.70217 116.86 5.70217C117.15 5.40975 117.296 5.26354 117.586 4.97112C118.021 4.97112 118.457 4.97112 118.892 4.97112C119.038 4.82491 119.183 4.6787 119.473 4.38628C120.344 4.38628 121.215 4.38628 122.086 4.38628C122.231 4.24007 122.376 4.09386 122.376 4.09386C122.522 3.94765 122.522 3.80144 122.667 3.80144C123.683 3.80144 124.409 3.21661 125.28 2.92419C125.715 2.77798 126.151 2.92419 126.586 2.92419C126.731 2.77798 127.022 2.48556 127.312 2.33935C127.893 2.33935 128.619 2.33935 129.199 2.33935C129.49 2.04693 129.635 1.90072 129.925 1.6083C130.506 1.6083 131.232 1.6083 131.958 1.6083C132.248 1.31588 132.393 1.16968 132.683 0.877256C133.845 0.877256 134.861 0.877256 136.022 0.877256C136.167 0.731047 136.313 0.584838 136.603 0.292419C138.345 0.292419 140.232 0.292419 142.119 0.292419C142.264 0.438628 142.41 0.584838 142.7 0.877256C143.135 0.438628 143.426 0.146209 143.716 0C143.861 0.146209 144.152 0.292419 144.442 0.584838C145.023 0.584838 145.748 0.584838 146.329 0.584838C146.619 0.877256 146.765 1.02347 147.055 1.31588C147.49 1.31588 147.926 1.31588 148.361 1.31588C149.087 2.19314 149.958 2.92419 150.684 3.80144C150.684 5.40975 150.684 7.01805 150.684 8.33393C149.958 9.64982 149.378 10.9657 148.652 12.1354C148.362 12.7202 148.216 13.5975 147.781 14.1823C147.49 14.7671 146.91 15.2058 146.329 15.6444C146.039 15.9368 145.603 16.2292 145.458 16.6679C145.313 16.9603 145.168 17.3989 145.023 17.8375C144.732 17.8375 144.442 17.8375 144.297 17.8375C143.571 18.4224 143.135 19.4458 141.974 19.2996C141.974 19.7383 141.974 20.0307 141.974 20.3231C140.377 21.9314 138.78 23.3935 137.329 25.148C136.458 26.0253 135.296 26.3177 134.571 27.3412C133.845 28.3646 132.974 29.2419 131.958 29.9729C131.377 30.4116 130.651 30.5578 130.07 31.1426C129.635 31.5812 129.345 32.1661 128.619 32.3123C127.893 32.4585 127.457 33.3357 126.877 33.7744C126.441 34.213 125.86 34.6516 125.425 35.2365C124.989 35.8213 124.118 35.5289 123.828 36.1137C123.247 37.1372 121.796 36.991 121.36 38.0144C120.925 39.0379 119.618 38.8917 119.038 39.6227C118.312 40.5 117.586 41.231 116.715 41.9621C116.57 42.1083 116.134 42.2545 115.554 42.4007C114.828 43.1318 114.102 44.009 113.231 44.8863C111.924 45.0325 111.489 46.3484 110.473 47.0794C110.037 46.9332 109.747 47.2256 109.311 47.5181C109.021 47.8105 108.586 47.8105 108.15 47.9567C108.15 48.2491 108.15 48.5415 108.15 48.6877C107.715 49.2726 106.698 49.1264 106.263 49.8574C105.972 50.296 105.537 50.7347 105.101 51.0271C104.956 51.1733 104.521 50.8809 104.521 51.0271C103.505 52.1968 102.053 52.6354 100.892 53.8051C100.166 53.8051 99.8754 54.5361 99.2948 54.9747C98.8593 55.4134 98.2786 55.1209 97.8431 55.7058C97.4076 56.4368 96.5366 56.4368 95.9559 56.8755C95.9559 57.1679 95.9559 57.3141 95.9559 57.6065C95.2301 58.3375 94.5042 59.0686 93.4881 59.6534C92.6171 60.0921 92.1816 61.4079 90.875 61.5541C90.7299 61.5541 90.5847 61.8466 90.4395 61.9928C89.2782 62.87 88.6975 64.6246 86.9555 64.917C85.7942 66.0866 84.778 67.1101 83.907 67.9874C82.8908 68.426 82.3101 68.7184 81.5843 69.157C81.294 69.7419 81.0036 70.3267 80.8585 70.9116C80.423 71.0578 79.9875 70.9116 80.423 71.4964C80.5681 71.3502 80.7133 71.0578 80.8585 70.9116C81.294 70.9116 81.8746 70.9116 82.4553 70.9116C82.7457 70.4729 83.1812 69.8881 83.3263 69.5957C84.1973 69.4495 84.6328 69.4495 85.2135 69.3033C85.3587 69.3033 85.3587 69.0108 85.3587 68.7184C85.9393 68.7184 86.52 68.7184 86.9555 68.7184C89.5685 66.9639 92.7622 66.2329 95.0849 63.8935C95.5204 63.8935 95.9559 63.8935 96.3914 63.8935C96.6818 63.6011 96.8269 63.4549 97.1173 63.1625C97.5528 63.1625 97.9883 63.1625 98.7141 63.1625C99.0044 62.7238 99.4399 62.2852 99.8755 61.5541C100.311 61.8466 100.746 61.9928 101.327 62.4314C102.053 62.4314 103.069 62.5776 104.23 62.2852C103.94 61.9928 103.65 61.7004 103.505 61.4079C103.94 60.8231 104.521 61.2617 105.247 60.9693C105.247 60.9693 105.537 60.6769 105.827 60.3845C106.263 60.3845 106.698 60.3845 107.279 60.3845C107.424 60.0921 107.424 59.6534 107.569 59.361C106.844 58.7762 106.118 59.0686 105.537 59.0686C105.537 58.9224 105.537 58.7762 105.537 58.7762C106.553 58.1913 107.715 57.6065 108.731 57.0217C108.876 57.0217 109.166 57.1679 109.311 57.1679C109.166 57.8989 108.586 58.0451 108.15 58.63C108.731 59.0686 109.021 59.0686 109.892 58.3375C110.328 58.3375 110.763 58.3375 111.199 58.3375C111.489 57.8989 112.215 57.7527 112.07 57.0217C112.505 56.7292 112.941 56.583 113.521 56.2906C114.102 56.7292 114.683 57.3141 115.118 57.7527C116.57 57.3141 117.731 56.583 118.602 55.2671C117.731 54.5361 116.279 53.6588 115.408 53.6588C115.408 52.9278 115.989 52.4892 116.279 52.4892C117.296 52.343 117.731 51.6119 118.312 51.0271C118.747 51.0271 119.183 51.0271 119.618 51.0271C119.909 50.7347 120.054 50.5884 120.344 50.296C121.07 50.8809 121.505 52.0505 122.957 51.6119C122.522 52.6354 122.231 53.074 121.941 53.6588C121.505 53.8051 120.925 53.3664 120.634 54.0975C121.505 54.3899 121.505 54.3899 121.941 53.6588C122.231 53.6588 122.522 53.6588 122.812 53.6588C123.538 53.074 123.973 52.1968 124.989 52.1968C125.28 52.1968 125.425 51.9043 125.425 51.6119ZM87.6814 72.5199C87.9717 72.3736 88.5524 73.2509 88.8427 72.2274C88.4072 71.935 88.1169 71.935 87.6814 72.5199ZM119.473 52.6354C119.909 53.074 120.344 53.074 120.78 52.6354C120.344 52.1967 119.909 52.1967 119.473 52.6354ZM117.876 53.6588C118.021 53.5126 118.021 53.5126 118.167 53.3664C118.021 53.2202 117.876 53.2202 117.731 53.2202C117.731 53.2202 117.586 53.3664 117.441 53.3664C117.586 53.5126 117.731 53.5126 117.876 53.6588ZM100.311 64.3321C100.456 64.4783 100.456 64.4783 100.601 64.6245C100.746 64.4783 100.746 64.3321 100.746 64.1859C100.746 64.1859 100.601 64.0397 100.601 63.8935C100.456 64.0397 100.456 64.1859 100.311 64.3321ZM97.8431 64.7708C97.6979 64.917 97.6979 64.917 97.5528 65.0632C97.6979 65.2094 97.8431 65.2094 97.9883 65.2094C97.9883 65.2094 98.1334 65.0632 98.2786 65.0632C98.1334 64.917 97.9883 64.7708 97.8431 64.7708ZM3.91953 73.1047C3.77436 72.9585 3.77436 72.8123 3.6292 72.9585C3.48403 72.9585 3.33886 73.1047 3.19369 73.1047C3.33886 73.2509 3.33886 73.3971 3.48403 73.2509C3.6292 73.2509 3.77436 73.2509 3.91953 73.1047Z" fill="#EB7B49"/>
<path d="M354.5 42.8393C354.355 42.9856 354.355 43.278 354.209 43.4242C353.629 43.4242 352.903 43.4242 352.322 43.4242C352.032 43.7166 351.742 43.8628 351.451 44.1552C349.709 44.1552 347.967 44.1552 346.225 44.1552C345.935 44.4477 345.79 44.5939 345.499 44.8863C344.919 44.8863 344.193 44.8863 343.612 44.8863C343.177 45.7635 342.015 45.4711 341.435 46.2022C340.564 46.056 339.983 46.4946 339.402 46.787C338.677 47.0794 337.66 46.787 336.934 46.787C336.644 47.0794 336.499 47.2256 336.209 47.518C335.628 47.518 334.902 47.518 334.176 47.518C333.886 47.8105 333.741 47.9567 333.596 48.1029C332.725 48.1029 331.854 48.1029 330.983 48.1029C330.692 48.3953 330.547 48.5415 330.257 48.8339C328.95 48.8339 327.644 48.8339 326.337 48.8339C326.047 49.1264 325.902 49.2726 325.611 49.565C322.998 49.565 320.385 49.565 317.627 49.565C317.482 49.7112 317.337 49.8574 317.046 50.1498C316.03 50.1498 314.724 50.1498 313.708 50.1498C313.417 50.4422 313.272 50.5884 312.982 50.8809C311.966 50.8809 310.804 50.8809 309.643 50.8809C309.353 51.1733 309.207 51.3195 308.917 51.6119C307.901 51.6119 306.594 51.6119 305.578 51.6119C305.288 51.9043 305.143 52.0505 304.852 52.343C303.836 52.343 302.53 52.343 301.514 52.343C301.223 52.6354 301.078 52.7816 300.933 52.9278C300.352 52.9278 299.626 52.9278 299.046 52.9278C298.755 53.2202 298.61 53.3664 298.32 53.6588C297.884 53.6588 297.449 53.6588 297.013 53.6588C296.868 53.8051 296.723 53.9513 296.578 54.0975C295.852 54.5361 294.981 54.2437 294.255 54.3899C294.11 54.5361 293.965 54.6823 293.674 54.9747C292.803 54.9747 291.932 54.9747 291.061 54.9747C290.771 55.2671 290.626 55.4133 290.336 55.7058C289.755 55.7058 289.029 55.4133 288.594 55.7058C287.868 56.2906 286.997 56.1444 286.271 56.4368C285.545 56.7292 284.964 57.1679 284.239 57.6065C283.513 57.6065 282.642 57.6065 281.771 57.6065C281.48 57.8989 281.335 58.0451 281.045 58.3375C280.609 58.3375 280.174 58.3375 279.738 58.3375C279.448 58.63 279.303 58.7762 279.013 59.0686C278.287 59.0686 277.561 58.7762 277.125 59.6534C276.254 59.6534 275.383 59.6534 274.657 59.6534C273.786 60.0921 273.061 60.5307 272.19 61.1155C271.754 61.1155 271.173 61.1155 270.448 61.1155C270.157 61.4079 270.012 61.5541 269.722 61.8466C269.141 61.8466 268.415 61.8466 267.835 61.8466C267.544 62.139 267.399 62.2852 267.109 62.5776C266.673 62.5776 266.238 62.5776 265.802 62.5776C265.657 62.7238 265.512 62.87 265.222 63.1625C264.641 63.1625 263.915 63.1625 263.189 63.3087C263.044 63.4549 262.899 63.6011 262.609 63.8935C262.173 63.8935 261.447 63.7473 260.867 63.8935C260.286 64.0397 259.85 64.6245 259.125 64.6245C258.689 64.6245 258.254 65.2094 257.673 65.2094C257.092 65.3556 256.366 65.2094 255.931 65.9404C255.495 65.9404 255.06 65.9404 254.624 65.9404C254.334 66.2328 254.189 66.3791 253.898 66.6715C253.463 66.6715 253.027 66.6715 252.592 66.6715C252.302 66.9639 252.156 67.1101 251.866 67.4025C251.14 67.4025 250.56 67.4025 249.979 67.4025C249.689 67.6949 249.398 67.9874 249.108 67.9874C248.237 67.8412 247.656 68.426 247.076 68.7184C246.495 68.8646 245.914 68.8646 245.334 69.3032C244.898 69.5957 244.027 69.4495 243.301 69.4495C243.156 69.5957 242.866 69.8881 242.575 70.0343C241.704 70.0343 240.833 70.0343 239.962 70.0343C239.672 70.3267 239.527 70.4729 239.237 70.7653C237.64 70.7653 236.188 70.7653 234.591 70.7653C234.301 70.1805 234.011 69.5957 233.72 69.0108C233.865 68.8646 234.011 68.5722 234.301 68.426C234.156 68.2798 234.011 68.1336 233.865 68.1336C233.14 67.8411 232.704 69.5957 231.688 68.426C231.833 68.2798 231.978 68.1336 232.268 67.8412C232.268 66.9639 232.268 66.0866 232.268 65.5018C232.704 64.7708 232.849 64.1859 233.285 63.4549C233.43 63.4549 233.72 63.3087 234.156 63.3087C234.156 63.0162 234.301 62.7238 234.446 62.2852C235.027 61.7004 235.607 60.9693 236.333 60.2383C236.188 59.0686 237.785 58.9224 237.64 57.7527C237.64 57.6065 237.64 57.6065 237.785 57.4603C238.511 56.7292 239.237 55.9982 239.817 55.2671C240.398 54.5361 240.398 53.2202 241.414 53.074C241.704 52.1967 241.269 51.3195 242.14 50.7347C241.414 50.0036 241.559 48.8339 240.688 48.3953L238.075 47.6643C237.785 47.3718 237.349 47.0794 237.059 46.787C236.624 47.0794 236.333 47.3718 236.043 47.6643C234.011 47.6643 232.123 47.6643 230.091 47.6643C229.946 47.8105 229.801 47.9567 229.51 48.2491C228.639 48.2491 227.768 48.2491 226.897 48.2491C226.607 48.5415 226.462 48.6877 226.171 48.9801C225.736 48.9801 225.155 48.9801 224.72 48.9801C223.994 48.8339 223.849 49.565 223.268 49.7112C222.687 49.7112 222.107 49.7112 221.526 49.7112C221.381 49.8574 221.091 50.1498 220.8 50.296C220.22 50.296 219.494 50.296 218.913 50.296C218.623 50.5884 218.478 50.7347 218.187 51.0271C217.752 51.0271 217.316 51.0271 216.881 51.0271C216.736 51.1733 216.59 51.3195 216.445 51.4657C215.719 51.9043 214.994 51.6119 214.268 51.6119C214.123 51.7581 213.977 51.9043 213.832 52.0505C213.252 52.4892 212.526 52.0505 211.655 52.4892C211.074 53.3664 209.913 52.7816 208.896 53.074C208.461 54.2437 206.864 52.9278 206.429 54.2437C205.703 54.2437 204.977 54.2437 204.396 54.2437C204.106 54.5361 203.961 54.6823 203.67 54.9747C203.235 54.9747 202.799 54.9747 202.364 54.9747C202.074 55.2671 201.928 55.4133 201.638 55.7058C200.767 55.7058 199.896 55.7058 199.17 55.7058C198.444 56.1444 197.864 56.583 197.138 56.8755C196.412 57.1679 195.541 57.0217 194.815 57.6065C194.525 57.8989 193.799 57.6065 193.073 57.6065C192.928 57.7527 192.638 58.0451 192.347 58.1913C191.767 58.1913 191.041 58.1913 190.46 58.1913C190.17 58.4837 190.025 58.63 189.734 58.9224C189.154 58.9224 188.428 58.9224 187.847 58.9224C187.557 59.2148 187.412 59.361 187.121 59.6534C186.686 59.6534 186.25 59.6534 185.815 59.6534C185.524 59.9458 185.379 60.0921 185.089 60.3845C184.653 60.3845 184.218 60.3845 183.782 60.3845C183.492 60.6769 183.202 60.8231 182.911 61.1155C181.46 60.5307 180.298 61.9928 178.992 61.8466C178.411 62.87 177.395 62.2852 176.524 62.4314C176.379 62.5776 176.089 62.87 175.798 63.0162C175.363 63.0162 174.927 63.0162 174.492 63.0162C174.201 63.3087 174.056 63.4549 173.766 63.7473C173.33 63.7473 172.895 63.7473 172.459 63.7473C172.314 63.8935 172.169 64.0397 171.879 64.3321C171.298 64.3321 170.572 64.3321 169.846 64.3321C169.556 64.6245 169.411 64.7708 169.12 65.0632C168.249 65.0632 167.378 65.0632 166.507 65.0632C166.217 65.3556 166.072 65.5018 165.782 65.7942C164.911 65.7942 164.04 65.7942 163.169 65.7942C162.878 66.0866 162.733 66.2328 162.588 66.3791C162.007 66.3791 161.281 66.3791 160.556 66.3791C160.41 66.2328 160.12 65.9404 159.83 65.7942C159.394 65.7942 158.959 65.7942 158.523 65.7942C157.507 64.7708 156.491 63.7473 155.475 62.7238C155.91 61.8466 153.878 61.4079 155.039 60.3845C155.475 60.5307 155.475 61.1155 156.055 60.9693C156.491 61.7004 156.491 61.7004 157.362 61.4079C157.072 60.6769 156.491 61.1155 156.055 60.9693C156.201 60.6769 156.491 60.2383 156.781 59.7996C156.781 59.5072 156.781 59.0686 156.781 58.4837C157.072 58.3375 157.362 58.3375 157.797 58.0451C158.088 57.4603 158.378 56.7292 158.668 55.9982C158.668 55.852 158.668 55.852 158.523 55.5596C158.233 55.5596 157.943 55.4134 157.507 55.2671C157.362 55.1209 157.362 54.8285 157.072 54.2437C157.507 53.9513 157.943 53.6588 158.523 53.2202C159.249 53.3664 159.975 54.2437 160.991 53.9513C161.136 54.3899 161.281 54.8285 161.427 55.1209C161.572 55.1209 161.572 55.1209 161.717 55.1209C163.314 53.5126 164.911 51.7581 166.653 50.1498C166.653 50.1498 166.653 50.0036 166.653 49.8574C167.669 50.0036 168.395 49.565 168.685 48.5415C169.121 48.5415 169.556 48.5415 169.992 48.5415C169.846 49.4188 169.12 49.7112 168.54 50.296C168.104 50.7347 167.814 51.4657 166.943 51.3195C166.217 52.0505 165.491 52.7816 164.765 53.5126C163.604 54.6823 162.443 55.852 161.572 56.7292C160.846 58.1913 160.41 59.2148 159.685 60.5307C160.12 60.8231 160.556 60.9693 161.572 61.5541C161.572 61.5541 162.152 61.5541 162.878 61.5541C163.023 61.4079 163.169 61.2617 163.459 60.9693C164.33 60.9693 165.201 60.9693 166.072 60.9693C166.362 60.6769 166.507 60.5307 166.653 60.2383C167.524 60.2383 168.249 60.2383 169.12 60.2383C169.992 59.7996 170.717 59.361 171.588 58.7762C172.024 58.7762 172.605 58.7762 173.33 58.7762C173.621 58.4838 173.766 58.3375 174.056 58.0451C174.347 58.1913 174.492 58.4838 174.782 58.7762C176.089 58.4838 177.25 57.7527 178.266 56.583C178.702 56.8754 178.992 57.1679 179.427 57.3141C179.573 57.1679 179.863 56.8754 180.008 56.7292C180.589 56.7292 181.315 56.7292 181.895 56.7292C182.186 56.4368 182.331 56.2906 182.621 55.9982C182.766 56.1444 182.911 56.2906 183.202 56.583C184.363 55.9982 185.524 55.4134 186.976 54.5361C187.557 54.5361 188.428 54.5361 189.444 54.5361C189.589 54.0975 189.589 53.805 189.734 53.5126C190.46 52.9278 191.186 53.5126 192.202 53.074C192.202 53.074 192.347 52.9278 192.493 52.7816C193.364 52.4892 194.38 52.7816 195.396 52.6354C195.541 52.4892 195.831 52.1967 196.122 52.0505C196.267 52.1967 196.412 52.343 196.702 52.6354C197.428 52.4892 197.573 51.7581 198.444 51.4657C198.88 51.4657 199.751 51.4657 200.622 51.4657C200.912 51.1733 201.057 51.0271 201.348 50.7347C202.364 50.7347 203.525 50.7347 204.687 50.7347C205.267 50.1498 205.848 49.4188 206.574 48.6877C207.59 48.6877 208.751 48.6877 209.767 48.6877C210.058 48.3953 210.348 48.2491 210.639 47.9567C211.219 47.9567 211.945 47.9567 212.671 47.8105C212.961 47.518 213.106 47.3718 213.252 47.2256C214.268 47.2256 215.429 47.2256 216.3 47.2256C217.607 46.4946 218.768 45.9097 219.058 45.7635C220.22 45.0325 220.8 45.1787 221.381 45.1787C221.962 45.1787 222.542 45.1787 222.978 45.1787C223.704 44.7401 224.429 44.4476 225.3 44.009C225.446 44.1552 225.591 44.3014 225.881 44.4477C226.317 44.4477 226.897 44.5939 227.478 44.3014C227.623 44.009 227.623 43.7166 227.768 43.4242C227.913 43.278 228.204 43.1318 228.349 43.1318C230.381 43.1318 232.559 43.1318 234.591 43.1318C234.882 42.8393 235.027 42.6931 235.317 42.4007C236.043 42.1083 236.188 42.8393 236.624 42.9856C236.914 42.8393 237.059 42.5469 237.349 42.4007C237.495 42.5469 237.785 42.8393 237.93 42.9856C239.382 42.9856 241.124 42.9856 242.575 42.9856C242.866 43.278 243.011 43.4242 243.156 43.5704C243.737 43.5704 244.463 43.5704 245.043 43.5704C245.624 44.4476 247.076 44.009 247.366 45.3249C247.511 45.9097 247.221 46.787 248.092 47.3718C248.092 48.9801 248.092 50.5884 248.092 52.1967C247.076 52.7816 246.93 53.9513 246.205 54.6823C245.479 55.5596 244.608 56.2906 243.882 57.1679C243.156 57.8989 242.285 58.7762 241.559 59.6534C240.833 60.5307 240.253 61.5542 239.382 62.7238C239.382 63.1625 239.527 63.6011 240.398 63.4549C240.543 63.3087 240.833 63.0162 241.124 62.87C241.995 62.87 242.866 62.87 243.737 62.87C244.027 62.5776 244.172 62.4314 244.463 62.139C244.898 62.139 245.334 62.139 245.769 62.139C246.059 61.8466 246.205 61.7004 246.495 61.4079C246.93 61.4079 247.366 61.4079 247.801 61.4079C248.092 61.1155 248.237 60.9693 248.527 60.6769C249.543 60.5307 253.608 59.2148 254.479 58.63C255.06 58.63 255.786 58.63 256.221 58.63C256.947 58.1913 257.673 57.8989 258.254 57.4603C258.834 57.0217 259.705 57.6065 260.286 56.8755C260.721 56.2906 261.883 56.7292 262.609 55.9982C263.044 55.5596 264.06 56.2906 264.786 55.5596C265.367 54.8285 266.238 55.4134 266.964 55.2671C267.544 54.6823 268.27 54.5361 268.996 54.5361C269.286 54.3899 269.431 54.0975 269.722 53.805C270.157 53.805 270.593 53.805 271.028 53.805C271.319 53.5126 271.464 53.3664 271.754 53.074C272.335 53.074 273.061 53.074 273.786 53.074C273.932 52.9278 274.077 52.7816 274.222 52.6354C274.948 52.343 275.674 52.4892 276.4 52.4892C276.69 52.6354 276.835 52.9278 277.271 53.2202C277.416 52.7816 277.416 52.4892 277.561 52.0505C277.851 51.7581 278.142 51.4657 278.432 51.1733C279.013 51.1733 279.738 51.1733 280.319 51.1733C280.609 50.8809 280.755 50.7347 281.045 50.4422C281.48 50.4422 281.916 50.4422 282.351 50.4422C282.642 50.1498 282.787 50.0036 283.077 49.7112C283.803 49.7112 284.384 49.7112 285.11 49.7112C285.255 49.565 285.4 49.4188 285.69 49.1264C286.126 49.1264 286.561 48.9801 287.142 48.9801C287.432 48.6877 287.723 48.5415 287.868 48.3953C288.594 48.3953 289.465 48.5415 289.9 48.2491C290.481 47.8105 291.061 47.6643 291.642 47.8105C292.368 47.9567 292.803 47.2256 293.384 47.0794C294.11 47.0794 294.691 47.0794 295.126 46.3484C295.852 46.3484 296.433 46.3484 297.159 46.3484C297.449 46.056 297.594 45.9097 297.884 45.6173C298.32 45.6173 298.755 45.6173 299.191 45.6173C299.336 45.4711 299.481 45.3249 299.772 45.0325C300.643 45.0325 301.514 45.0325 302.385 45.0325C302.675 44.7401 302.82 44.5939 303.11 44.3014C303.981 44.3014 304.852 44.3014 305.723 44.3014C306.014 44.009 306.159 43.8628 306.449 43.5704C307.465 43.5704 308.772 43.5704 309.788 43.5704C310.078 43.278 310.224 43.1318 310.369 42.9856C311.82 42.9856 313.417 42.9856 315.014 42.9856C315.304 42.6931 315.45 42.5469 315.74 42.2545C316.321 42.2545 317.046 42.2545 317.627 42.2545C317.918 41.9621 318.063 41.8159 318.353 41.5235C319.95 41.5235 321.402 41.5235 322.998 41.5235C323.144 41.3773 323.289 41.231 323.434 41.0848C323.579 41.0848 323.579 40.9386 323.724 40.9386C326.192 40.9386 328.515 40.9386 330.983 40.9386C331.128 40.7924 331.273 40.6462 331.563 40.3538C332.725 40.3538 333.886 40.3538 335.047 40.3538C335.338 40.6462 335.628 40.7924 335.918 41.0848C336.354 40.7924 336.789 40.5 337.37 40.2076C337.66 40.3538 337.951 40.6462 338.386 40.9386C338.677 40.9386 339.112 40.9386 339.547 40.9386C339.693 40.7924 339.983 40.5 340.273 40.2076C342.015 40.2076 343.757 40.2076 345.499 40.2076C345.79 39.9152 345.935 39.769 346.225 39.4765C346.806 39.6227 347.387 39.1841 347.822 39.769C347.677 40.0614 347.387 40.2076 347.241 40.5C347.822 40.9386 348.403 41.5235 348.983 42.1083C349.274 41.5235 349.709 40.7924 350 40.0614C349.709 39.7689 349.564 39.4765 349.274 39.1841C349.419 38.5993 349.854 38.7455 350.29 38.8917C350.725 39.3303 350.435 39.9152 350.58 40.5C350.725 40.7924 351.016 40.9386 351.306 41.231C350.871 41.3773 350.435 41.6697 350 41.8159C350.725 42.4007 351.596 41.9621 352.322 42.1083C352.613 41.5235 352.903 40.9386 353.193 40.2076C352.758 40.0614 352.467 39.9152 352.032 39.769C352.758 39.3303 352.903 39.3303 353.919 39.1841C353.919 38.8917 354.064 38.5993 354.209 38.1606C354.5 37.722 354.935 37.722 355.516 38.3069C355.371 38.4531 355.226 38.5993 354.935 38.8917C354.935 39.1841 354.935 39.6227 354.79 40.2076C354.645 40.5 354.355 40.7924 354.209 41.0848C353.774 42.4007 353.774 42.8393 354.5 42.8393ZM159.83 57.1679C160.41 57.0217 160.846 57.0217 160.41 56.4368C160.265 56.583 160.12 56.8754 159.975 57.0217C159.539 57.0217 159.249 57.1679 159.249 57.7527C159.104 57.8989 157.943 59.6534 157.943 59.6534C157.943 59.9458 158.088 60.0921 158.233 60.3845C158.668 59.9458 158.959 59.6534 159.249 59.361C159.249 58.7762 159.249 58.1913 159.249 57.6065C159.685 57.7527 159.975 57.6065 159.83 57.1679Z" fill="#EB7B49"/>
<path d="M189.154 23.1011C189.444 23.1011 189.879 23.1011 190.17 23.1011C190.751 23.5397 190.46 24.1245 190.46 24.7094C190.315 25.0018 190.025 25.148 189.88 25.4404C190.315 26.1715 190.605 26.9025 191.041 27.6336C190.46 28.2184 189.589 27.7798 188.863 27.926C187.702 28.657 186.976 29.8267 186.541 31.1426C186.686 31.2888 186.831 31.435 186.976 31.5812C186.831 31.8736 186.541 32.0199 186.395 32.3123C186.541 32.6047 186.831 32.7509 186.976 33.0433C186.976 33.4819 186.976 33.9206 186.976 34.3592C186.25 34.944 185.815 35.6751 184.944 36.1137C184.653 35.8213 184.218 35.5289 183.928 35.3827C183.637 35.5289 183.492 35.8213 183.202 35.9675C182.911 35.9675 182.766 35.9675 182.476 35.9675C182.331 35.6751 182.331 35.3827 182.186 35.0903C182.476 34.7978 182.621 34.5054 182.911 34.213C182.476 34.0668 182.04 33.7744 181.315 33.4819C183.492 31.2888 185.379 29.2419 187.557 27.1949C187.557 27.1949 187.557 26.9025 187.412 26.7563C186.686 26.0253 186.25 26.9025 185.815 27.1949C185.089 27.1949 184.508 27.1949 183.928 27.1949C183.782 27.3412 183.637 27.4874 183.347 27.7798C182.621 27.926 181.75 28.0722 180.879 27.6336C181.315 26.9025 182.04 26.4639 183.057 26.0253C182.186 25.8791 181.605 25.7329 180.879 25.7329C180.879 25.4404 180.879 25.148 180.734 24.7094C181.024 24.5632 181.315 24.5632 181.605 24.417C181.895 24.7094 182.186 24.8556 182.331 25.148C182.621 25.148 182.911 25.148 183.347 25.148C183.492 25.2942 183.492 25.5866 183.637 25.7329C184.799 25.7329 185.96 25.7329 187.121 25.7329C187.266 25.2942 187.412 25.0018 187.557 24.5632C187.847 24.7094 188.137 24.8556 188.428 25.0018C189.299 24.417 189.154 23.6859 189.154 23.1011ZM183.928 33.0433C184.073 33.1895 184.073 33.1895 184.218 33.3357C184.363 33.1895 184.363 33.0433 184.363 32.8971C184.363 32.8971 184.218 32.7509 184.218 32.6047C184.073 32.7509 184.073 32.8971 183.928 33.0433Z" fill="#EB7B49"/>
<path d="M131.812 47.6643C131.522 47.9567 131.377 48.1029 131.087 48.3953C130.651 48.3953 130.216 48.3953 129.78 48.3953C129.49 47.6643 129.054 47.0794 128.764 46.4946C128.909 45.0325 130.361 45.1787 131.087 44.4477C131.377 44.1552 132.103 44.3014 132.683 44.4477C132.683 45.1787 132.103 44.8863 131.812 45.0325C131.667 45.0325 131.667 45.3249 131.522 45.6173C132.683 45.7635 133.7 45.6173 134.716 45.7635C134.571 47.0794 132.974 46.6408 132.683 47.8105C132.683 47.6643 132.103 47.6643 131.812 47.6643Z" fill="#EB7B49"/>
<path d="M112.215 57.1679C111.634 57.1679 110.908 57.3141 110.328 57.0217C110.328 56.8754 110.182 56.8754 110.328 56.7292C110.908 56.1444 111.344 55.5596 111.779 55.1209C112.36 55.1209 112.65 55.1209 113.231 55.1209C113.666 54.6823 114.102 54.2437 114.537 53.805C114.973 53.805 115.263 53.805 115.554 53.805C115.408 54.6823 115.699 55.5596 115.408 56.583C115.118 56.2906 114.973 56.1444 114.537 55.852C113.957 56.1444 113.086 55.4134 112.36 56.1444C112.215 56.4368 112.215 56.7292 112.215 57.1679Z" fill="#EB7B49"/>
<path d="M148.652 37.4296C147.926 37.2834 147.49 37.2834 146.91 37.2834C146.91 36.991 146.765 36.6986 146.765 36.4061C147.345 36.1137 147.926 35.8213 148.652 35.3827C148.942 35.3827 149.523 35.2365 149.958 35.5289C149.813 35.9675 149.668 36.2599 149.523 36.5523C149.958 36.6986 150.249 36.8448 150.684 36.991C150.684 37.2834 150.684 37.4296 150.829 37.722C150.249 38.0144 149.668 38.3069 148.942 38.7455C148.797 38.3069 148.652 38.0144 148.652 37.4296Z" fill="#EB7B49"/>
<path d="M165.201 32.6047C165.056 32.7509 165.056 33.1895 164.911 33.1895C163.894 33.1895 163.459 34.6516 162.298 33.7744C161.862 34.3592 161.427 34.944 161.136 35.3827C160.12 35.3827 159.394 35.3827 158.668 35.3827C158.814 35.2365 158.814 34.944 158.959 34.7978C159.685 34.5054 160.41 34.213 161.136 33.9206C161.281 33.9206 161.281 33.6282 161.427 33.3357C162.007 33.3357 162.588 33.3357 163.023 33.3357C163.314 33.0433 163.459 32.8971 163.749 32.6047C164.185 32.6047 164.765 32.6047 165.201 32.6047Z" fill="#EB7B49"/>
<path d="M161.281 33.3357C160.701 33.3357 160.12 33.3357 159.539 33.3357C159.394 33.0433 159.249 32.7509 159.104 32.3123C159.83 31.8736 160.41 31.2888 161.136 30.8502C161.136 30.9964 161.281 31.2888 161.281 31.7274C161.572 31.8736 162.007 32.1661 162.588 32.3123C162.443 32.8971 161.136 32.1661 161.281 33.3357Z" fill="#EB7B49"/>
<path d="M176.524 42.1083C176.96 42.1083 177.395 42.1083 177.831 42.1083C177.395 43.278 176.234 43.8628 175.508 44.8863C174.782 45.0325 174.347 44.7401 174.492 44.009C175.218 43.4242 176.379 43.278 176.524 42.1083Z" fill="#EB7B49"/>
<path d="M146.039 41.0848C147.345 40.5 148.362 39.6227 149.668 39.3303C149.668 39.3303 149.813 39.4765 149.958 39.4765C149.813 40.5 148.797 40.5 148.216 40.9386C147.636 41.3773 147.055 41.6697 146.329 41.9621C146.039 41.8159 146.039 41.3773 146.039 41.0848Z" fill="#EB7B49"/>
<path d="M171.298 42.1083C171.298 41.3773 172.169 41.231 172.169 40.7924C173.185 40.5 173.621 41.9621 174.637 41.3773C174.637 41.6697 174.637 41.8159 174.637 42.1083C174.347 42.2545 173.911 42.5469 173.621 42.6931C173.476 42.5469 173.185 42.2545 173.04 42.1083C172.314 42.1083 171.734 42.1083 171.298 42.1083Z" fill="#EB7B49"/>
<path d="M177.54 28.5108C177.25 28.657 177.105 28.9495 176.669 29.2419C176.524 28.8032 176.524 28.3646 176.379 28.0722C177.25 27.4874 177.976 27.926 178.992 27.4874C179.137 27.3412 179.573 26.6101 180.298 27.1949C180.153 27.7798 179.718 28.0722 179.427 28.3646C178.847 28.5108 178.266 28.5108 177.54 28.5108Z" fill="#EB7B49"/>
<path d="M181.895 22.37C183.202 22.37 184.218 22.37 185.379 22.5162C184.944 23.1011 184.653 23.3935 184.363 23.6859C184.073 23.5397 183.637 23.2473 183.347 23.1011C182.621 22.8087 182.476 24.1245 181.605 23.8321C181.46 23.8321 181.46 23.6859 181.315 23.6859C181.169 22.9549 181.895 22.9549 181.895 22.37Z" fill="#EB7B49"/>
<path d="M171.879 27.7798C170.717 27.6336 171.588 29.0957 170.717 29.0957C170.427 28.8032 170.572 28.3646 170.427 27.926C170.282 27.4874 170.137 27.1949 169.846 26.6101C169.992 26.4639 170.282 26.1715 170.572 25.7329C171.153 25.7329 171.298 26.4639 171.734 26.6101C171.879 27.1949 171.879 27.4874 171.879 27.7798Z" fill="#EB7B49"/>
<path d="M166.653 49.565C166.653 49.2726 166.653 48.9801 166.653 48.8339C167.378 48.1029 167.959 47.6643 168.54 47.0794C168.685 47.2256 168.975 47.5181 169.266 47.8105C169.12 48.2491 168.83 48.5415 168.685 48.8339C168.395 48.8339 168.104 48.8339 167.814 48.8339C167.233 49.2726 166.943 49.4188 166.653 49.565Z" fill="#EB7B49"/>
<path d="M141.974 43.8628C141.539 44.8863 140.377 45.0325 139.506 45.6173C139.361 45.7635 139.071 45.4711 138.926 45.4711C138.926 44.8863 139.506 44.7401 139.797 44.3014C140.668 44.7401 140.958 43.1318 141.829 43.7166C141.829 43.5704 141.829 43.7166 141.974 43.8628Z" fill="#EB7B49"/>
<path d="M165.201 32.6047C165.201 32.4585 165.201 32.3123 165.201 32.3123C166.217 31.7274 167.233 30.9964 168.54 31.2888C168.54 31.8736 167.959 32.0199 167.669 32.6047C166.943 32.6047 166.072 32.6047 165.201 32.6047Z" fill="#EB7B49"/>
<path d="M132.103 48.9801C131.958 50.296 130.506 50.1498 129.78 50.8809C129.635 51.0271 129.199 50.8809 128.619 50.8809C128.909 50.4422 129.054 50.296 129.199 50.0036C129.635 49.4188 130.651 49.565 131.087 48.8339C131.232 48.8339 131.812 48.9801 132.103 48.9801Z" fill="#EB7B49"/>
<path d="M134.716 47.6643C134.571 47.9567 134.425 48.2491 134.28 48.3953C134.135 48.6877 133.845 48.8339 133.7 48.9801C133.119 48.9801 132.683 48.9801 132.103 48.9801C132.248 48.8339 132.248 48.5415 132.393 48.3953C132.538 48.1029 132.683 47.8105 132.829 47.6643C133.409 47.6643 134.135 47.6643 134.716 47.6643Z" fill="#EB7B49"/>
<path d="M188.137 29.8267C188.428 29.8267 188.573 29.8267 188.863 29.8267C189.444 30.4116 189.154 30.9964 189.154 31.7274C188.863 31.7274 188.573 31.8736 188.283 31.8736C187.557 31.2888 187.557 30.5578 188.137 29.8267Z" fill="#EB7B49"/>
<path d="M178.556 40.7924C178.266 40.7924 177.831 40.7924 177.54 40.7924C177.395 40.0614 178.121 39.6227 178.121 38.8917C178.411 38.8917 178.702 38.8917 178.992 38.7455C179.137 38.8917 179.282 38.8917 179.282 39.0379C179.718 39.9152 178.411 40.0614 178.556 40.7924Z" fill="#EB7B49"/>
<path d="M153.297 38.0144C152.717 38.7455 151.555 39.3303 150.829 39.1841C150.829 38.5993 151.41 38.4531 151.7 38.0144C152.281 38.0144 152.717 38.0144 153.297 38.0144Z" fill="#EB7B49"/>
<path d="M178.556 40.7924C178.992 40.7924 179.427 40.7924 179.863 40.7924C179.573 41.8159 178.847 42.2545 177.831 42.1083C177.976 41.9621 177.976 41.6697 178.121 41.5235C178.266 41.3773 178.411 41.0848 178.556 40.7924Z" fill="#EB7B49"/>
<path d="M174.492 41.5235C174.347 41.231 174.056 40.7924 173.911 40.5C174.201 40.2076 174.492 39.9152 174.782 39.6227C175.363 40.2076 175.072 40.9386 175.072 41.6697C175.072 41.5235 174.782 41.5235 174.492 41.5235Z" fill="#EB7B49"/>
<path d="M134.716 47.6643C134.716 46.9332 135.442 46.787 135.732 46.3484C136.022 46.3484 136.313 46.3484 136.603 46.4946C136.603 47.2256 136.022 47.3718 135.732 47.8105C135.442 47.6643 135.006 47.6643 134.716 47.6643Z" fill="#EB7B49"/>
<path d="M178.556 36.6986C178.556 37.1372 178.556 37.4296 178.556 38.0144C177.976 38.0144 177.685 38.0144 177.25 38.0144C177.25 37.5758 177.25 37.2834 177.25 36.6986C177.831 36.6986 178.121 36.6986 178.556 36.6986Z" fill="#EB7B49"/>
<path d="M153.297 38.0144C153.297 37.2834 154.023 37.1372 154.313 36.6986C154.604 36.6986 154.894 36.6986 155.184 36.8448C155.184 37.5758 154.604 37.722 154.313 38.1606C154.023 38.0144 153.588 38.0144 153.297 38.0144Z" fill="#EB7B49"/>
<path d="M154.604 35.3827C154.604 34.6516 155.33 34.5054 155.62 34.0668C156.055 34.3592 156.346 34.6516 156.781 34.944C155.91 35.5289 155.33 35.2365 154.604 35.3827Z" fill="#EB7B49"/>
<path d="M162.588 49.565C162.443 50.296 162.007 50.5884 161.281 51.0271C161.281 50.5884 161.281 50.1498 161.136 49.7112C161.862 49.7112 162.152 49.7112 162.588 49.565Z" fill="#EB7B49"/>
<path d="M168.54 31.1426C169.411 30.704 169.411 30.704 170.572 30.8502C169.992 31.5812 169.266 31.1426 168.54 31.1426Z" fill="#EB7B49"/>
<path d="M189.444 23.1011C188.573 22.9549 187.847 23.3935 187.266 22.6625C187.702 22.2238 188.283 22.37 188.718 22.37C188.863 22.37 189.008 22.8087 189.444 23.1011Z" fill="#EB7B49"/>
<path d="M171.879 27.7798C172.314 27.926 172.895 27.4874 173.185 28.2184C172.314 28.5108 172.314 28.5108 171.879 27.7798Z" fill="#EB7B49"/>
<path d="M173.33 29.3881C173.621 29.3881 173.911 29.2419 174.201 29.2419C174.347 29.2419 174.347 29.5343 174.492 29.6805L174.347 29.8267C174.056 29.8267 173.766 29.8267 173.476 29.6805C173.33 29.6805 173.33 29.5343 173.33 29.3881Z" fill="#EB7B49"/>
<path d="M167.378 30.2653C166.798 30.704 166.507 30.704 166.072 30.4115C166.217 29.5343 166.653 29.8267 167.378 30.2653Z" fill="#EB7B49"/>
<path d="M157.943 31.2888C158.378 30.5578 158.378 30.5578 159.249 30.8502C158.959 31.5812 158.378 31.1426 157.943 31.2888Z" fill="#EB7B49"/>
<path d="M157.943 31.2888C157.507 32.0199 157.507 32.0199 156.636 31.7274C156.926 30.9964 157.507 31.435 157.943 31.2888Z" fill="#EB7B49"/>
<path d="M154.023 33.3357C154.459 32.6047 154.459 32.6047 155.33 32.8971C155.039 33.6282 154.459 33.1895 154.023 33.3357Z" fill="#EB7B49"/>
<path d="M177.25 38.0144C176.814 38.7455 176.814 38.7455 175.943 38.4531C176.234 37.722 176.814 38.1606 177.25 38.0144Z" fill="#EB7B49"/>
<path d="M182.186 38.0144C182.621 38.5993 182.621 38.8917 182.331 39.3303C181.605 39.0379 181.75 38.5993 182.186 38.0144Z" fill="#EB7B49"/>
<path d="M176.524 42.1083C176.089 42.1083 175.653 42.1083 175.218 42.1083C175.218 41.8159 175.218 41.6697 175.218 41.3773C175.508 41.3773 175.798 41.231 176.089 41.3773C176.379 41.5235 176.379 41.9621 176.524 42.1083Z" fill="#EB7B49"/>
<path d="M164.911 46.9332C165.346 47.518 165.346 47.8105 165.056 48.2491C164.33 47.9567 164.475 47.518 164.911 46.9332Z" fill="#EB7B49"/>
<path d="M183.928 25.148C184.363 24.417 184.363 24.417 185.234 24.7094C184.944 25.4404 184.218 25.0018 183.928 25.148Z" fill="#EB7B49"/>
<path d="M180.008 26.3177C180.153 26.1715 180.153 26.0253 180.298 25.8791C180.444 26.0253 180.589 26.0253 180.444 26.1715C180.444 26.3177 180.298 26.4639 180.298 26.6101C180.153 26.4639 180.008 26.3177 180.008 26.3177Z" fill="#EB7B49"/>
<path d="M177.831 26.9025C177.685 27.0487 177.54 27.0487 177.395 27.0487C177.395 27.0487 177.25 26.9025 177.105 26.9025C177.25 26.7563 177.395 26.7563 177.54 26.7563C177.685 26.6101 177.831 26.7563 177.831 26.9025Z" fill="#EB7B49"/>
<path d="M166.362 27.926C166.507 28.0722 166.507 28.0722 166.653 28.2184C166.507 28.3646 166.362 28.3646 166.217 28.3646C166.217 28.3646 166.072 28.2184 165.927 28.2184C166.072 28.0722 166.217 28.0722 166.362 27.926Z" fill="#EB7B49"/>
<path d="M163.023 29.2419C163.314 28.9495 163.459 28.8032 163.604 28.5108C164.185 29.2419 163.604 29.0957 163.023 29.2419Z" fill="#EB7B49"/>
<path d="M163.459 29.0957C163.169 29.3881 163.023 29.5343 162.878 29.8267C162.443 29.2419 162.878 29.2419 163.459 29.0957Z" fill="#EB7B49"/>
<path d="M190.315 29.8267C190.17 29.6805 190.025 29.6805 189.88 29.5343C190.025 29.3881 190.025 29.2419 190.17 29.3881C190.315 29.3881 190.46 29.5343 190.605 29.5343C190.46 29.6805 190.315 29.6805 190.315 29.8267Z" fill="#EB7B49"/>
<path d="M163.604 31.2888C163.749 31.435 163.749 31.5812 163.749 31.7274C163.749 31.7274 163.604 31.8736 163.604 32.0199C163.459 31.8736 163.459 31.7274 163.459 31.5812C163.459 31.435 163.604 31.2888 163.604 31.2888Z" fill="#EB7B49"/>
<path d="M154.168 33.1895C153.878 33.4819 153.733 33.6282 153.588 33.9206C153.152 33.3357 153.588 33.3357 154.168 33.1895Z" fill="#EB7B49"/>
<path d="M158.523 33.4819C158.378 33.6282 158.378 33.7744 158.233 33.9206C158.088 33.7744 157.943 33.7744 158.088 33.6282C158.088 33.4819 158.233 33.3357 158.233 33.1895C158.378 33.3357 158.378 33.4819 158.523 33.4819Z" fill="#EB7B49"/>
<path d="M151.265 34.944C151.12 35.0903 151.12 35.2365 150.975 35.3827C150.829 35.2365 150.684 35.2365 150.829 35.0903C150.829 34.944 150.975 34.7978 150.975 34.6516C151.12 34.7978 151.12 34.7978 151.265 34.944Z" fill="#EB7B49"/>
<path d="M154.894 35.2365C154.604 35.5289 154.459 35.6751 154.313 35.9675C153.733 35.3827 154.313 35.3827 154.894 35.2365Z" fill="#EB7B49"/>
<path d="M158.814 35.2365C158.523 35.5289 158.378 35.6751 158.233 35.9675C157.797 35.3827 158.233 35.3827 158.814 35.2365Z" fill="#EB7B49"/>
<path d="M157.072 36.5523C156.926 36.4061 156.781 36.4061 156.636 36.2599C156.781 36.1137 156.781 35.9675 156.926 36.1137C157.072 36.1137 157.217 36.2599 157.362 36.2599C157.217 36.4061 157.217 36.5523 157.072 36.5523Z" fill="#EB7B49"/>
<path d="M178.411 36.8448C178.702 36.5523 178.847 36.4061 178.992 36.1137C179.427 36.6986 178.847 36.6986 178.411 36.8448Z" fill="#EB7B49"/>
<path d="M181.75 37.1372C181.605 37.2834 181.605 37.2834 181.46 37.4296C181.315 37.2834 181.315 37.1372 181.315 36.991C181.315 36.991 181.46 36.8448 181.46 36.6986C181.605 36.8448 181.75 36.991 181.75 37.1372Z" fill="#EB7B49"/>
<path d="M183.782 36.991C183.637 37.1372 183.637 37.2834 183.492 37.4296C183.347 37.2834 183.202 37.2834 183.347 37.1372C183.347 36.991 183.492 36.8448 183.492 36.6986C183.637 36.8448 183.637 36.8448 183.782 36.991Z" fill="#EB7B49"/>
<path d="M147.781 38.8917C147.926 39.0379 147.926 39.0379 148.071 39.1841C147.926 39.3303 147.781 39.3303 147.636 39.3303C147.636 39.3303 147.49 39.1841 147.345 39.1841C147.49 39.0379 147.636 38.8917 147.781 38.8917Z" fill="#EB7B49"/>
<path d="M352.322 39.1841C352.177 39.3303 352.177 39.3303 352.032 39.4765C351.887 39.3303 351.887 39.1841 351.887 39.0379C351.887 39.0379 352.032 38.8917 352.032 38.7455C352.177 38.8917 352.322 39.0379 352.322 39.1841Z" fill="#EB7B49"/>
<path d="M140.668 39.9152C140.522 40.0614 140.522 40.0614 140.377 40.2076C140.232 40.0614 140.232 39.9152 140.232 39.769C140.232 39.769 140.377 39.6227 140.377 39.4765C140.522 39.6227 140.522 39.7689 140.668 39.9152Z" fill="#EB7B49"/>
<path d="M180.298 40.2076C180.589 39.9152 180.734 39.769 180.879 39.4765C181.315 40.0614 180.879 40.0614 180.298 40.2076Z" fill="#EB7B49"/>
<path d="M139.216 40.3538C139.071 40.5 139.071 40.6462 138.926 40.7924C138.78 40.6462 138.635 40.6462 138.78 40.5C138.78 40.3538 138.926 40.2076 138.926 40.0614C139.071 40.2076 139.216 40.2076 139.216 40.3538Z" fill="#EB7B49"/>
<path d="M180.589 40.0614C180.589 40.5 180.444 40.7924 179.863 40.7924C179.863 40.3538 180.008 40.0614 180.589 40.0614Z" fill="#EB7B49"/>
<path d="M356.097 40.0614C356.242 40.2076 356.242 40.3538 356.242 40.5C356.242 40.5 356.097 40.6462 356.097 40.7924C355.951 40.6462 355.951 40.5 355.951 40.3538C355.951 40.2076 356.097 40.2076 356.097 40.0614Z" fill="#EB7B49"/>
<path d="M357.258 42.4007C356.968 42.1083 356.823 41.9621 356.532 41.8159C357.113 41.231 357.113 41.8159 357.258 42.4007Z" fill="#EB7B49"/>
<path d="M359 41.9621C358.855 42.1083 358.855 42.1083 358.71 42.2545C358.564 42.1083 358.564 41.9621 358.564 41.8159C358.564 41.8159 358.71 41.6697 358.71 41.5235C358.855 41.6697 359 41.8159 359 41.9621Z" fill="#EB7B49"/>
<path d="M140.522 42.2545C140.668 42.4007 140.668 42.4007 140.813 42.5469C140.668 42.6931 140.522 42.6931 140.377 42.6931C140.377 42.6931 140.232 42.5469 140.087 42.5469C140.232 42.4007 140.377 42.2545 140.522 42.2545Z" fill="#EB7B49"/>
<path d="M171.443 42.1083C171.153 42.4007 171.008 42.5469 170.863 42.8393C170.427 42.1083 170.863 42.2545 171.443 42.1083Z" fill="#EB7B49"/>
<path d="M175.218 42.1083C175.218 42.4007 175.218 42.6931 174.782 42.6931C174.637 42.6931 174.637 42.4007 174.492 42.1083C174.782 42.1083 175.072 42.1083 175.218 42.1083Z" fill="#EB7B49"/>
<path d="M354.209 42.8393C354.5 42.5469 354.645 42.4007 354.79 42.1083C355.371 42.8393 354.79 42.6931 354.209 42.8393Z" fill="#EB7B49"/>
<path d="M356.968 41.9621C357.258 42.2545 357.403 42.4007 357.693 42.5469C357.113 42.9856 357.113 42.5469 356.968 41.9621Z" fill="#EB7B49"/>
<path d="M137.764 42.9856C137.909 43.1318 137.909 43.1318 138.055 43.278C137.909 43.4242 137.764 43.4242 137.619 43.4242C137.619 43.4242 137.474 43.278 137.329 43.278C137.474 43.1318 137.619 42.9856 137.764 42.9856Z" fill="#EB7B49"/>
<path d="M125.86 47.6643C126.151 47.3718 126.296 47.2256 126.441 46.9332C126.877 47.518 126.441 47.518 125.86 47.6643Z" fill="#EB7B49"/>
<path d="M126.296 47.518C126.006 47.8105 125.86 47.9567 125.715 48.2491C125.28 47.6643 125.715 47.6643 126.296 47.518Z" fill="#EB7B49"/>
<path d="M170.427 48.3953C170.717 48.1029 170.863 47.9567 171.008 47.6643C171.443 48.2491 170.863 48.2491 170.427 48.3953Z" fill="#EB7B49"/>
<path d="M124.554 48.3953C124.699 48.5415 124.699 48.5415 124.844 48.6877C124.699 48.8339 124.554 48.8339 124.409 48.8339C124.409 48.8339 124.264 48.6877 124.118 48.6877C124.264 48.5415 124.409 48.3953 124.554 48.3953Z" fill="#EB7B49"/>
<path d="M163.023 48.9801C163.314 48.6877 163.459 48.5415 163.604 48.2491C164.185 48.9801 163.604 48.8339 163.023 48.9801Z" fill="#EB7B49"/>
<path d="M169.846 48.9801C169.846 48.5415 169.992 48.2491 170.572 48.2491C170.572 48.6877 170.427 48.9801 169.846 48.9801Z" fill="#EB7B49"/>
<path d="M127.603 49.1264C127.748 49.2726 127.893 49.2726 128.038 49.4188C127.893 49.565 127.893 49.7112 127.748 49.565C127.603 49.565 127.457 49.4188 127.312 49.4188C127.457 49.2726 127.603 49.1264 127.603 49.1264Z" fill="#EB7B49"/>
<path d="M163.314 48.9801C163.314 49.4188 163.169 49.7112 162.588 49.7112C162.588 49.1264 162.878 48.9801 163.314 48.9801Z" fill="#EB7B49"/>
<path d="M166.653 50.296C166.362 50.296 166.072 50.296 166.072 49.8574C166.072 49.7112 166.362 49.7112 166.653 49.565C166.653 49.8574 166.653 50.1498 166.653 50.296Z" fill="#EB7B49"/>
<path d="M124.844 51.1733C124.554 50.8809 124.409 50.7347 124.118 50.5884C124.699 50.1498 124.699 50.5884 124.844 51.1733Z" fill="#EB7B49"/>
<path d="M164.475 51.0271C164.765 50.7347 164.911 50.5884 165.056 50.296C165.491 51.0271 164.911 50.8809 164.475 51.0271Z" fill="#EB7B49"/>
<path d="M124.844 51.0271C125.28 51.0271 125.57 51.1733 125.57 51.7581C124.989 51.7581 124.699 51.4657 124.844 51.0271Z" fill="#EB7B49"/>
<path d="M127.748 51.0271C127.893 51.1733 127.893 51.3195 127.893 51.4657C127.893 51.4657 127.748 51.6119 127.748 51.7581C127.603 51.6119 127.603 51.4657 127.603 51.3195C127.603 51.1733 127.748 51.0271 127.748 51.0271Z" fill="#EB7B49"/>
<path d="M164.765 50.8809C164.475 51.1733 164.33 51.3195 164.185 51.6119C163.749 51.0271 164.33 51.0271 164.765 50.8809Z" fill="#EB7B49"/>
<path d="M160.556 52.0505C160.41 52.1967 160.41 52.1968 160.265 52.343C160.12 52.1968 160.12 52.0505 160.12 51.9043C160.12 51.9043 160.265 51.7581 160.265 51.6119C160.41 51.7581 160.41 51.9043 160.556 52.0505Z" fill="#EB7B49"/>
<path d="M163.169 52.6354C163.023 52.7816 163.023 52.9278 162.878 53.074C162.733 52.9278 162.588 52.9278 162.733 52.7816C162.733 52.6354 162.878 52.4892 162.878 52.343C163.023 52.4892 163.023 52.4892 163.169 52.6354Z" fill="#EB7B49"/>
<path d="M104.811 59.7996C104.811 59.361 104.956 59.0686 105.537 59.0686C105.537 59.6534 105.392 59.7996 104.811 59.7996Z" fill="#EB7B49"/>
<path d="M105.101 59.7996C104.811 60.0921 104.666 60.2383 104.521 60.5307C104.085 59.9459 104.521 59.9459 105.101 59.7996Z" fill="#EB7B49"/>
<path d="M102.343 60.8231C102.488 60.6769 102.488 60.6769 102.634 60.5307C102.779 60.6769 102.779 60.8231 102.779 60.9693C102.779 60.9693 102.634 61.1155 102.634 61.2617C102.488 61.1155 102.343 60.9693 102.343 60.8231Z" fill="#EB7B49"/>
<path d="M104.23 65.3556C104.23 65.648 104.23 65.9404 103.795 65.9404C103.65 65.9404 103.65 65.648 103.505 65.3556C103.795 65.3556 103.94 65.3556 104.23 65.3556Z" fill="#EB7B49"/>
<path d="M85.649 68.8646C85.3587 68.5722 85.2135 68.426 84.9232 68.2798C85.649 67.8412 85.5038 68.426 85.649 68.8646Z" fill="#EB7B49"/>
</svg>
